 <svg version="1.0" xmlns="http://www.w3.org/2000/svg" width="700.000000pt" height="700.000000pt" viewBox="0 0 700.000000 700.000000" preserveAspectRatio="xMidYMid meet">
<metadata>
Created by potrace 1.12, written by Peter Selinger 2001-2015
</metadata>
<g transform="translate(0.000000,700.000000) scale(0.100000,-0.100000)" fill="#000000" stroke="none">
<path d="M440 3490 l0 -600 3060 0 3060 0 0 600 0 600 -3060 0 -3060 0 0 -600z
m6030 -10 l0 -500 -2350 0 -2350 0 0 493 c0 272 3 497 7 500 3 4 1061 7 2350
7 l2343 0 0 -500z m-5490 145 c63 -63 119 -115 125 -115 6 0 62 52 125 115 67
68 123 115 134 115 26 0 56 -29 56 -54 0 -28 -287 -316 -315 -316 -12 0 -77
56 -167 145 -152 148 -168 173 -135 210 30 35 59 18 177 -100z m-98 -162 c15
-14 18 -32 18 -125 0 -95 -2 -110 -20 -128 -27 -27 -55 -25 -79 6 -18 23 -21
41 -21 125 0 86 3 102 20 119 24 24 57 26 82 3z m520 0 c26 -23 27 -227 1
-255 -20 -22 -51 -23 -75 -1 -26 23 -27 227 -1 255 20 22 51 23 75 1z"></path>
<path d="M4143 3573 c-42 -8 -26 -31 25 -35 59 -6 91 15 48 32 -28 10 -34 11
-73 3z"></path>
<path d="M4423 3564 c-7 -18 4 -31 32 -36 31 -5 32 -46 1 -58 -14 -5 -26 -15
-26 -23 0 -22 67 -80 84 -74 20 8 21 33 1 41 -19 7 -19 31 1 61 14 21 14 30 4
56 -18 44 -84 66 -97 33z"></path>
<path d="M5927 3574 c-10 -11 -9 -92 2 -98 16 -10 32 22 29 60 -3 36 -16 52
-31 38z"></path>
<path d="M6017 3485 c-89 -86 -108 -115 -74 -115 20 0 202 171 202 189 0 36
-35 16 -128 -74z"></path>
<path d="M2100 3556 c0 -12 111 -116 125 -116 14 0 135 113 129 121 -11 18
-41 8 -74 -26 -19 -19 -43 -35 -55 -35 -12 0 -36 16 -55 35 -34 35 -70 46 -70
21z"></path>
<path d="M2465 3557 c-3 -7 -5 -51 -3 -98 2 -69 6 -84 20 -87 26 -5 34 27 29
113 -5 65 -9 80 -24 83 -9 2 -19 -3 -22 -11z"></path>
<path d="M2626 3561 c-12 -19 23 -27 119 -27 82 1 100 4 100 16 0 12 -20 16
-107 18 -58 1 -109 -1 -112 -7z"></path>
<path d="M3075 3550 c-4 -12 -4 -41 -1 -65 5 -30 2 -53 -10 -79 -14 -28 -15
-39 -6 -48 9 -9 16 -7 32 7 28 25 42 79 38 145 -3 48 -6 55 -25 58 -15 2 -23
-3 -28 -18z"></path>
<path d="M3340 3555 c0 -8 16 -38 35 -65 19 -27 35 -53 35 -57 0 -18 47 -66
58 -59 17 10 15 41 -3 56 -9 7 -32 42 -51 77 -25 43 -42 63 -55 63 -10 0 -19
-7 -19 -15z"></path>
<path d="M3758 3553 c-47 -55 -50 -104 -7 -156 17 -20 37 -37 45 -37 21 0 17
34 -6 55 -12 11 -20 31 -20 50 0 19 8 39 20 50 11 10 20 26 20 37 0 23 -32 24
-52 1z"></path>
<path d="M3865 3560 c-9 -15 13 -40 37 -40 14 0 19 6 16 23 -3 24 -41 36 -53
17z"></path>
<path d="M4037 3564 c-11 -12 -8 -182 3 -189 6 -4 18 -1 26 6 22 18 16 182 -6
187 -9 1 -19 0 -23 -4z"></path>
<path d="M4335 3557 c-3 -7 -5 -52 -3 -98 3 -76 5 -84 23 -84 19 0 20 7 20 95
0 82 -2 95 -18 98 -9 2 -19 -3 -22 -11z"></path>
<path d="M4657 3564 c-4 -4 -7 -44 -7 -89 0 -60 4 -86 15 -95 26 -22 34 -1 32
93 -2 74 -5 92 -17 95 -9 1 -19 0 -23 -4z"></path>
<path d="M4740 3558 c0 -8 14 -19 31 -25 37 -14 36 -44 -1 -53 -29 -7 -33 -28
-9 -43 21 -13 65 13 81 49 17 36 -16 78 -65 82 -26 2 -37 -1 -37 -10z"></path>
<path d="M4950 3558 c1 -23 189 -191 206 -184 26 10 13 29 -83 114 -86 77
-123 98 -123 70z"></path>
<path d="M5131 3556 c-18 -22 -1 -71 25 -71 16 0 19 7 19 40 0 43 -21 58 -44
31z"></path>
<path d="M5427 3564 c-4 -4 -7 -37 -7 -74 0 -36 -5 -71 -11 -77 -13 -13 -8
-54 6 -54 6 -1 19 11 30 25 26 35 29 179 5 184 -9 1 -19 0 -23 -4z"></path>
<path d="M5675 3560 c-3 -5 9 -29 27 -53 18 -24 45 -65 60 -90 15 -26 32 -47
38 -47 25 0 19 33 -16 87 -21 32 -44 70 -51 86 -12 27 -46 37 -58 17z"></path>
<path d="M3257 3449 c-37 -50 -42 -79 -14 -79 8 0 22 9 32 20 10 11 31 20 46
20 34 0 44 13 23 31 -9 7 -20 23 -25 36 -5 13 -12 23 -16 23 -5 0 -25 -23 -46
-51z"></path>
<path d="M4130 3485 c-17 -20 -4 -35 30 -35 16 0 32 5 35 10 9 15 -13 40 -35
40 -10 0 -23 -7 -30 -15z"></path>
<path d="M5601 3450 c-42 -64 -31 -110 14 -60 10 11 31 20 46 20 34 0 44 13
23 31 -9 7 -20 23 -25 36 -12 33 -22 29 -58 -27z"></path>
<path d="M2714 3477 c-3 -8 -4 -34 -2 -58 2 -36 7 -44 23 -44 18 0 20 7 20 55
0 44 -3 55 -18 58 -9 2 -20 -3 -23 -11z"></path>
<path d="M2094 3457 c-9 -24 0 -80 13 -84 18 -6 33 31 24 62 -8 32 -28 44 -37
22z"></path>
<path d="M2321 3456 c-7 -8 -11 -30 -9 -48 2 -25 8 -33 23 -33 17 0 20 7 20
44 0 47 -14 62 -34 37z"></path>
<path d="M4947 3464 c-11 -12 -8 -82 4 -90 6 -3 18 1 27 9 12 12 13 23 6 48
-9 32 -24 45 -37 33z"></path>
<path d="M5283 3459 c-7 -7 -13 -18 -13 -25 0 -18 40 -64 56 -64 21 0 17 41
-9 73 -18 22 -24 26 -34 16z"></path>
<path d="M2947 3453 c-14 -13 -6 -43 17 -70 19 -21 27 -25 37 -16 9 9 7 21 -7
52 -18 38 -33 49 -47 34z"></path>
<path d="M6080 3417 c0 -16 32 -47 48 -47 21 0 24 21 6 41 -20 22 -54 26 -54
6z"></path>
<path d="M3870 3404 c-11 -12 -10 -18 3 -32 16 -15 18 -15 38 5 12 11 18 26
15 32 -10 16 -41 13 -56 -5z"></path>
<path d="M4124 3398 c-10 -16 27 -40 51 -34 11 3 28 6 38 6 10 0 17 8 17 20 0
17 -7 20 -49 20 -28 0 -53 -5 -57 -12z"></path>
</g>
</svg>